<svg height="444pt" viewBox="0 0 444 444.76925" width="444pt" xmlns="http://www.w3.org/2000/svg"><path d="m140.257812 210.304688c-19.09375-.074219-37.425781 7.492187-50.90625 21.015624l-67.917968 67.921876c-28.066406 28.132812-28.066406 73.671874 0 101.804687l22.636718 22.640625c28.117188 28.109375 73.695313 28.109375 101.808594 0l67.921875-67.917969c23.464844-23.882812 27.585938-60.703125 9.976563-89.175781l-23.769532 23.789062c5.832032 14.765626 2.335938 31.578126-8.894531 42.792969l-67.839843 67.914063c-15.636719 15.609375-40.957032 15.609375-56.59375 0l-22.640626-22.640625c-15.605468-15.636719-15.605468-40.957031 0-56.59375l67.921876-67.839844c11.207031-11.234375 28.015624-14.734375 42.773437-8.902344l23.785156-23.785156c-11.445312-7.238281-24.71875-11.0625-38.261719-11.023437zm0 0"/><path d="m294.902344 161.535156-11.316406-11.320312c-3.125-3.121094-8.191407-3.121094-11.3125 0l-124.449219 124.457031c-3.125 3.125-3.125 8.1875 0 11.3125l11.3125 11.3125c3.167969 3.015625 8.144531 3.015625 11.3125 0l124.453125-124.449219c3.125-3.121094 3.125-8.1875 0-11.3125zm0 0"/><path d="m356.121094 213.449219 67.917968-67.921875c28.066407-28.132813 28.066407-73.671875 0-101.808594l-22.640624-22.636719c-28.113282-28.109375-73.691407-28.109375-101.804688 0l-67.921875 67.917969c-23.464844 23.882812-27.585937 60.699219-9.976563 89.175781l23.769532-23.792969c-5.832032-14.761718-2.335938-31.574218 8.894531-42.789062l67.839844-67.914062c15.636719-15.609376 40.957031-15.609376 56.59375 0l22.640625 22.640624c15.605468 15.636719 15.605468 40.957032 0 56.59375l-67.921875 67.839844c-11.191407 11.265625-28.027344 14.757813-42.777344 8.878906l-23.796875 23.800782c28.425781 17.835937 65.40625 13.695312 89.183594-9.992188zm0 0"/></svg>