<svg width="12" height="12" viewBox="0 0 12 12" fill="none" xmlns="http://www.w3.org/2000/svg">
<g clip-path="url(#clip0)">
<path d="M11.832 1.0654L11.0031 0.246315C10.7788 0.0220155 10.4082 0.0220155 10.1741 0.246315L6.03923 4.38112L1.8264 0.168298C1.60201 -0.0560992 1.23143 -0.0560992 0.997473 0.168298L0.168542 0.997229C-0.055855 1.22153 -0.055855 1.59211 0.168542 1.82616L4.37171 6.02933L0.246559 10.174C0.0222596 10.3983 0.0222596 10.7689 0.246559 11.0029L1.07549 11.8319C1.29979 12.0562 1.67037 12.0562 1.90442 11.8319L6.03923 7.69695L10.1741 11.8319C10.3984 12.0562 10.769 12.0562 11.0031 11.8319L11.832 11.0029C12.0563 10.7786 12.0563 10.408 11.832 10.174L7.68734 6.03908L11.8222 1.90428C12.0563 1.67003 12.0563 1.29945 11.832 1.0654Z" fill="black"/>
</g>
<defs>
<clipPath id="clip0">
<rect width="12" height="12" fill="white"/>
</clipPath>
</defs>
</svg>
